<svg xmlns="http://www.w3.org/2000/svg" viewBox="0 0 507.32 532.12"><defs><style>.cls-1{fill:none;stroke:#c91745;stroke-miterlimit:10;stroke-width:8px;}</style></defs><title>1Fichier 1</title><g id="Calque_2" data-name="Calque 2"><g id="Calque_2-2" data-name="Calque 2"><path class="cls-1" d="M455.39,528.12h0L428.7,507.63a83.52,83.52,0,0,0-102.88.92h0a44.86,44.86,0,0,1-51.37,3.16l-14.08-8.62a61.94,61.94,0,0,0-57.59-3.73h0a53.64,53.64,0,0,1-80.52-4.75h0a4.34,4.34,0,0,0-5.45-1.17l-45.3,22.29c-14.26,7-30.13-6.08-25.93-21.41h0a24,24,0,0,0-13.22-28.21l-4.8-2.19A35.61,35.61,0,0,1,16.89,406.6l7.24-7.38A33.09,33.09,0,0,0,20,349.29h0a38.68,38.68,0,0,1-3.19-60l19.53-17.65a14.08,14.08,0,0,0-2.65-22.79h0a44.88,44.88,0,0,1-10.15-71h0A41.71,41.71,0,0,0,25.39,121h0a35.12,35.12,0,0,1,3.95-50h0a131.62,131.62,0,0,0,34-43.41l7.14-14.67A15.74,15.74,0,0,1,94.5,7.52l27.25,22.09a40.73,40.73,0,0,0,54.63-3l10.34-10.46a31.07,31.07,0,0,1,42.88-1.27l20.8,18.7a30.62,30.62,0,0,0,42-1l13.4-13.25a32.1,32.1,0,0,1,44.79-.36l14.07,13.49a33,33,0,0,0,44,1.52l10.19-8.49a31.34,31.34,0,0,1,34.54-3.74l27.9,14.5a29.24,29.24,0,0,1,9.11,44.51l0,0a48.29,48.29,0,0,0,6.4,67.76l.88.73a15.75,15.75,0,0,1-.9,24.89l-2,1.44a53.87,53.87,0,0,0-4.84,83.66l1.54,1.4a29,29,0,0,1,2.31,41.2l-.83.91a64.12,64.12,0,0,0-2,84.12l1.36,1.64a40.6,40.6,0,0,1,.94,50.63l-.63.82a22.89,22.89,0,0,0-3.36,21.74l4.33,12A40.61,40.61,0,0,1,455.39,528.12Z"/></g></g></svg>